<?xml version="1.0" encoding="utf-8"?>
<!-- Generated by Mocodo 4.3.3 -->
<svg width="3399" height="291" viewBox="0 0 3399 291" xmlns="http://www.w3.org/2000/svg">
<rect x="0" y="0" width="3399" height="291" fill="#FFFFFF" stroke="none" stroke-width="0"/>

<!-- Association CREER_PROJET -->
<g>
	<line x1="832" y1="107" x2="65" y2="256" stroke="#000000" stroke-width="1"/>
	<line x1="1021" y1="107" x2="65" y2="256" stroke="#000000" stroke-width="1"/>
	<g>
		<path d="M107 230 a14 14 90 0 1 14 14 V256 h-112 V244 a14 14 90 0 1 14 -14" fill="#FFFFFF" stroke="#FFFFFF" stroke-width="0"/>
		<path d="M121 256 v12 a14 14 90 0 1 -14 14 H23 a14 14 90 0 1 -14 -14 V256 H112" fill="#FFFFFF" stroke="#FFFFFF" stroke-width="0"/>
		<rect x="9" y="230" width="112" height="52" fill="none" rx="14" stroke="#000000" stroke-width="1.5"/>
		<line x1="9" y1="256" x2="121" y2="256" stroke="#000000" stroke-width="1"/>
		<text x="16" y="248.6" fill="#000000" font-family="Trebuchet MS" font-size="14">CREER_PROJET</text>
	</g>
	<text x="728" y="115.44" fill="#000000" font-family="Verdana" font-size="12">0,N</text>
	<text x="953" y="106.72" fill="#000000" font-family="Verdana" font-size="12">0,1</text>
</g>

<!-- Association RESPONSABLE_CAMPAGNE -->
<g>
	<line x1="832" y1="107" x2="244" y2="256" stroke="#000000" stroke-width="1"/>
	<line x1="1226" y1="107" x2="244" y2="256" stroke="#000000" stroke-width="1"/>
	<g>
		<path d="M321 230 a14 14 90 0 1 14 14 V256 h-182 V244 a14 14 90 0 1 14 -14" fill="#FFFFFF" stroke="#FFFFFF" stroke-width="0"/>
		<path d="M335 256 v12 a14 14 90 0 1 -14 14 H167 a14 14 90 0 1 -14 -14 V256 H182" fill="#FFFFFF" stroke="#FFFFFF" stroke-width="0"/>
		<rect x="153" y="230" width="182" height="52" fill="none" rx="14" stroke="#000000" stroke-width="1.5"/>
		<line x1="153" y1="256" x2="335" y2="256" stroke="#000000" stroke-width="1"/>
		<text x="161" y="248.6" fill="#000000" font-family="Trebuchet MS" font-size="14">RESPONSABLE_CAMPAGNE</text>
	</g>
	<text x="728" y="120.47" fill="#000000" font-family="Verdana" font-size="12">0,N</text>
	<text x="1133" y="110.31" fill="#000000" font-family="Verdana" font-size="12">0,1</text>
</g>

<!-- Association ANOMALIE_REPORTED_BY -->
<g>
	<line x1="832" y1="107" x2="456" y2="256" stroke="#000000" stroke-width="1"/>
	<line x1="1798" y1="107" x2="456" y2="256" stroke="#000000" stroke-width="1"/>
	<g>
		<path d="M531 230 a14 14 90 0 1 14 14 V256 h-178 V244 a14 14 90 0 1 14 -14" fill="#FFFFFF" stroke="#FFFFFF" stroke-width="0"/>
		<path d="M545 256 v12 a14 14 90 0 1 -14 14 H381 a14 14 90 0 1 -14 -14 V256 H178" fill="#FFFFFF" stroke="#FFFFFF" stroke-width="0"/>
		<rect x="367" y="230" width="178" height="52" fill="none" rx="14" stroke="#000000" stroke-width="1.5"/>
		<line x1="367" y1="256" x2="545" y2="256" stroke="#000000" stroke-width="1"/>
		<text x="374" y="248.6" fill="#000000" font-family="Trebuchet MS" font-size="14">ANOMALIE_REPORTED_BY</text>
	</g>
	<text x="728" y="132.62" fill="#000000" font-family="Verdana" font-size="12">0,N</text>
	<text x="1694" y="108.48" fill="#000000" font-family="Verdana" font-size="12">0,1</text>
</g>

<!-- Association ANOMALIE_ASSIGNEE -->
<g>
	<line x1="832" y1="107" x2="651" y2="256" stroke="#000000" stroke-width="1"/>
	<line x1="1798" y1="107" x2="651" y2="256" stroke="#000000" stroke-width="1"/>
	<g>
		<path d="M711 230 a14 14 90 0 1 14 14 V256 h-148 V244 a14 14 90 0 1 14 -14" fill="#FFFFFF" stroke="#FFFFFF" stroke-width="0"/>
		<path d="M725 256 v12 a14 14 90 0 1 -14 14 H591 a14 14 90 0 1 -14 -14 V256 H148" fill="#FFFFFF" stroke="#FFFFFF" stroke-width="0"/>
		<rect x="577" y="230" width="148" height="52" fill="none" rx="14" stroke="#000000" stroke-width="1.5"/>
		<line x1="577" y1="256" x2="725" y2="256" stroke="#000000" stroke-width="1"/>
		<text x="584" y="248.6" fill="#000000" font-family="Trebuchet MS" font-size="14">ANOMALIE_ASSIGNEE</text>
	</g>
	<text x="728" y="168.49" fill="#000000" font-family="Verdana" font-size="12">0,N</text>
	<text x="1694" y="110.1" fill="#000000" font-family="Verdana" font-size="12">0,1</text>
</g>

<!-- Association ASSIGN_UTILISATEUR -->
<g>
	<line x1="832" y1="107" x2="832" y2="256" stroke="#000000" stroke-width="1"/>
	<line x1="1984" y1="107" x2="832" y2="256" stroke="#000000" stroke-width="1"/>
	<g>
		<path d="M893 230 a14 14 90 0 1 14 14 V256 h-150 V244 a14 14 90 0 1 14 -14" fill="#FFFFFF" stroke="#FFFFFF" stroke-width="0"/>
		<path d="M907 256 v12 a14 14 90 0 1 -14 14 H771 a14 14 90 0 1 -14 -14 V256 H150" fill="#FFFFFF" stroke="#FFFFFF" stroke-width="0"/>
		<rect x="757" y="230" width="150" height="52" fill="none" rx="14" stroke="#000000" stroke-width="1.5"/>
		<line x1="757" y1="256" x2="907" y2="256" stroke="#000000" stroke-width="1"/>
		<text x="764" y="248.6" fill="#000000" font-family="Trebuchet MS" font-size="14">ASSIGN_UTILISATEUR</text>
	</g>
	<text x="837" y="222" fill="#000000" font-family="Verdana" font-size="12">1,1</text>
	<text x="1908" y="106.3" fill="#000000" font-family="Verdana" font-size="12">0,N</text>
</g>

<!-- Association NOTIFIER_UTILISATEUR -->
<g>
	<line x1="832" y1="107" x2="1021" y2="256" stroke="#000000" stroke-width="1"/>
	<line x1="2189" y1="107" x2="1021" y2="256" stroke="#000000" stroke-width="1"/>
	<g>
		<path d="M1089 230 a14 14 90 0 1 14 14 V256 h-164 V244 a14 14 90 0 1 14 -14" fill="#FFFFFF" stroke="#FFFFFF" stroke-width="0"/>
		<path d="M1103 256 v12 a14 14 90 0 1 -14 14 H953 a14 14 90 0 1 -14 -14 V256 H164" fill="#FFFFFF" stroke="#FFFFFF" stroke-width="0"/>
		<rect x="939" y="230" width="164" height="52" fill="none" rx="14" stroke="#000000" stroke-width="1.5"/>
		<line x1="939" y1="256" x2="1103" y2="256" stroke="#000000" stroke-width="1"/>
		<text x="947" y="248.6" fill="#000000" font-family="Trebuchet MS" font-size="14">NOTIFIER_UTILISATEUR</text>
	</g>
	<text x="914" y="165.6" fill="#000000" font-family="Verdana" font-size="12">1,1</text>
	<text x="2101" y="107.73" fill="#000000" font-family="Verdana" font-size="12">0,N</text>
</g>

<!-- Association MEMBRE_CAMPAGNE_UTIL -->
<g>
	<line x1="832" y1="107" x2="1226" y2="256" stroke="#000000" stroke-width="1"/>
	<line x1="2387" y1="107" x2="1226" y2="256" stroke="#000000" stroke-width="1"/>
	<g>
		<path d="M1303 230 a14 14 90 0 1 14 14 V256 h-182 V244 a14 14 90 0 1 14 -14" fill="#FFFFFF" stroke="#FFFFFF" stroke-width="0"/>
		<path d="M1317 256 v12 a14 14 90 0 1 -14 14 H1149 a14 14 90 0 1 -14 -14 V256 H182" fill="#FFFFFF" stroke="#FFFFFF" stroke-width="0"/>
		<rect x="1135" y="230" width="182" height="52" fill="none" rx="14" stroke="#000000" stroke-width="1.5"/>
		<line x1="1135" y1="256" x2="1317" y2="256" stroke="#000000" stroke-width="1"/>
		<text x="1143" y="248.6" fill="#000000" font-family="Trebuchet MS" font-size="14">MEMBRE_CAMPAGNE_UTIL</text>
	</g>
	<text x="914" y="131.08" fill="#000000" font-family="Verdana" font-size="12">1,1</text>
	<text x="2286" y="109.45" fill="#000000" font-family="Verdana" font-size="12">0,N</text>
</g>

<!-- Association HISTO_ACTION_AUTEUR -->
<g>
	<line x1="832" y1="107" x2="1433" y2="256" stroke="#000000" stroke-width="1"/>
	<line x1="2569" y1="107" x2="1433" y2="256" stroke="#000000" stroke-width="1"/>
	<g>
		<path d="M1503 230 a14 14 90 0 1 14 14 V256 h-168 V244 a14 14 90 0 1 14 -14" fill="#FFFFFF" stroke="#FFFFFF" stroke-width="0"/>
		<path d="M1517 256 v12 a14 14 90 0 1 -14 14 H1363 a14 14 90 0 1 -14 -14 V256 H168" fill="#FFFFFF" stroke="#FFFFFF" stroke-width="0"/>
		<rect x="1349" y="230" width="168" height="52" fill="none" rx="14" stroke="#000000" stroke-width="1.5"/>
		<line x1="1349" y1="256" x2="1517" y2="256" stroke="#000000" stroke-width="1"/>
		<text x="1356" y="248.6" fill="#000000" font-family="Trebuchet MS" font-size="14">HISTO_ACTION_AUTEUR</text>
	</g>
	<text x="914" y="120.0" fill="#000000" font-family="Verdana" font-size="12">0,N</text>
	<text x="2467" y="109.95" fill="#000000" font-family="Verdana" font-size="12">0,1</text>
</g>

<!-- Association PROJET_CAMPAGNE -->
<g>
	<line x1="1021" y1="107" x2="1620" y2="256" stroke="#000000" stroke-width="1"/>
	<line x1="1226" y1="107" x2="1620" y2="256" stroke="#000000" stroke-width="1"/>
	<g>
		<path d="M1677 230 a14 14 90 0 1 14 14 V256 h-142 V244 a14 14 90 0 1 14 -14" fill="#FFFFFF" stroke="#FFFFFF" stroke-width="0"/>
		<path d="M1691 256 v12 a14 14 90 0 1 -14 14 H1563 a14 14 90 0 1 -14 -14 V256 H142" fill="#FFFFFF" stroke="#FFFFFF" stroke-width="0"/>
		<rect x="1549" y="230" width="142" height="52" fill="none" rx="14" stroke="#000000" stroke-width="1.5"/>
		<line x1="1549" y1="256" x2="1691" y2="256" stroke="#000000" stroke-width="1"/>
		<text x="1556" y="248.6" fill="#000000" font-family="Trebuchet MS" font-size="14">PROJET_CAMPAGNE</text>
	</g>
	<text x="1068" y="111.36" fill="#000000" font-family="Verdana" font-size="12">1,1</text>
	<text x="1298" y="127.3" fill="#000000" font-family="Verdana" font-size="12">0,N</text>
</g>

<!-- Association CAMPAGNE_FEATURE -->
<g>
	<line x1="1226" y1="107" x2="1798" y2="256" stroke="#000000" stroke-width="1"/>
	<line x1="1433" y1="107" x2="1798" y2="256" stroke="#000000" stroke-width="1"/>
	<g>
		<path d="M1859 230 a14 14 90 0 1 14 14 V256 h-150 V244 a14 14 90 0 1 14 -14" fill="#FFFFFF" stroke="#FFFFFF" stroke-width="0"/>
		<path d="M1873 256 v12 a14 14 90 0 1 -14 14 H1737 a14 14 90 0 1 -14 -14 V256 H150" fill="#FFFFFF" stroke="#FFFFFF" stroke-width="0"/>
		<rect x="1723" y="230" width="150" height="52" fill="none" rx="14" stroke="#000000" stroke-width="1.5"/>
		<line x1="1723" y1="256" x2="1873" y2="256" stroke="#000000" stroke-width="1"/>
		<text x="1730" y="248.6" fill="#000000" font-family="Trebuchet MS" font-size="14">CAMPAGNE_FEATURE</text>
	</g>
	<text x="1298" y="118.46" fill="#000000" font-family="Verdana" font-size="12">1,1</text>
	<text x="1503" y="128.73" fill="#000000" font-family="Verdana" font-size="12">0,N</text>
</g>

<!-- Association ANOMALIE_CAMPAGNE -->
<g>
	<line x1="1226" y1="107" x2="1984" y2="256" stroke="#000000" stroke-width="1"/>
	<line x1="1798" y1="107" x2="1984" y2="256" stroke="#000000" stroke-width="1"/>
	<g>
		<path d="M2049 230 a14 14 90 0 1 14 14 V256 h-158 V244 a14 14 90 0 1 14 -14" fill="#FFFFFF" stroke="#FFFFFF" stroke-width="0"/>
		<path d="M2063 256 v12 a14 14 90 0 1 -14 14 H1919 a14 14 90 0 1 -14 -14 V256 H158" fill="#FFFFFF" stroke="#FFFFFF" stroke-width="0"/>
		<rect x="1905" y="230" width="158" height="52" fill="none" rx="14" stroke="#000000" stroke-width="1.5"/>
		<line x1="1905" y1="256" x2="2063" y2="256" stroke="#000000" stroke-width="1"/>
		<text x="1912" y="248.6" fill="#000000" font-family="Trebuchet MS" font-size="14">ANOMALIE_CAMPAGNE</text>
	</g>
	<text x="1298" y="113.67" fill="#000000" font-family="Verdana" font-size="12">1,1</text>
	<text x="1881" y="167.46" fill="#000000" font-family="Verdana" font-size="12">0,N</text>
</g>

<!-- Association MEMBRE_CAMPAGNE_CAMP -->
<g>
	<line x1="1226" y1="107" x2="2189" y2="256" stroke="#000000" stroke-width="1"/>
	<line x1="2387" y1="107" x2="2189" y2="256" stroke="#000000" stroke-width="1"/>
	<g>
		<path d="M2269 230 a14 14 90 0 1 14 14 V256 h-188 V244 a14 14 90 0 1 14 -14" fill="#FFFFFF" stroke="#FFFFFF" stroke-width="0"/>
		<path d="M2283 256 v12 a14 14 90 0 1 -14 14 H2109 a14 14 90 0 1 -14 -14 V256 H188" fill="#FFFFFF" stroke="#FFFFFF" stroke-width="0"/>
		<rect x="2095" y="230" width="188" height="52" fill="none" rx="14" stroke="#000000" stroke-width="1.5"/>
		<line x1="2095" y1="256" x2="2283" y2="256" stroke="#000000" stroke-width="1"/>
		<text x="2102" y="248.6" fill="#000000" font-family="Trebuchet MS" font-size="14">MEMBRE_CAMPAGNE_CAMP</text>
	</g>
	<text x="1298" y="110.53" fill="#000000" font-family="Verdana" font-size="12">1,1</text>
	<text x="2339.82" y="159" fill="#000000" font-family="Verdana" font-size="12">0,N</text>
</g>

<!-- Association FEATURE_TESTCASE -->
<g>
	<line x1="1433" y1="107" x2="2387" y2="256" stroke="#000000" stroke-width="1"/>
	<line x1="1620" y1="107" x2="2387" y2="256" stroke="#000000" stroke-width="1"/>
	<g>
		<path d="M2445 230 a14 14 90 0 1 14 14 V256 h-144 V244 a14 14 90 0 1 14 -14" fill="#FFFFFF" stroke="#FFFFFF" stroke-width="0"/>
		<path d="M2459 256 v12 a14 14 90 0 1 -14 14 H2329 a14 14 90 0 1 -14 -14 V256 H144" fill="#FFFFFF" stroke="#FFFFFF" stroke-width="0"/>
		<rect x="2315" y="230" width="144" height="52" fill="none" rx="14" stroke="#000000" stroke-width="1.5"/>
		<line x1="2315" y1="256" x2="2459" y2="256" stroke="#000000" stroke-width="1"/>
		<text x="2323" y="248.6" fill="#000000" font-family="Trebuchet MS" font-size="14">FEATURE_TESTCASE</text>
	</g>
	<text x="1503" y="110.33" fill="#000000" font-family="Verdana" font-size="12">1,1</text>
	<text x="1683" y="111.75" fill="#000000" font-family="Verdana" font-size="12">0,N</text>
</g>

<!-- Association ASSIGN_FEATURE -->
<g>
	<line x1="1433" y1="107" x2="2569" y2="256" stroke="#000000" stroke-width="1"/>
	<line x1="1984" y1="107" x2="2569" y2="256" stroke="#000000" stroke-width="1"/>
	<g>
		<path d="M2618 230 a14 14 90 0 1 14 14 V256 h-126 V244 a14 14 90 0 1 14 -14" fill="#FFFFFF" stroke="#FFFFFF" stroke-width="0"/>
		<path d="M2632 256 v12 a14 14 90 0 1 -14 14 H2520 a14 14 90 0 1 -14 -14 V256 H126" fill="#FFFFFF" stroke="#FFFFFF" stroke-width="0"/>
		<rect x="2506" y="230" width="126" height="52" fill="none" rx="14" stroke="#000000" stroke-width="1.5"/>
		<line x1="2506" y1="256" x2="2632" y2="256" stroke="#000000" stroke-width="1"/>
		<text x="2514" y="248.6" fill="#000000" font-family="Trebuchet MS" font-size="14">ASSIGN_FEATURE</text>
	</g>
	<text x="1503" y="108.51" fill="#000000" font-family="Verdana" font-size="12">1,1</text>
	<text x="2038" y="113.44" fill="#000000" font-family="Verdana" font-size="12">0,N</text>
</g>

<!-- Association TESTCASE_ANOMALIE -->
<g>
	<line x1="1620" y1="107" x2="2739" y2="256" stroke="#000000" stroke-width="1"/>
	<line x1="1798" y1="107" x2="2739" y2="256" stroke="#000000" stroke-width="1"/>
	<g>
		<path d="M2800 230 a14 14 90 0 1 14 14 V256 h-150 V244 a14 14 90 0 1 14 -14" fill="#FFFFFF" stroke="#FFFFFF" stroke-width="0"/>
		<path d="M2814 256 v12 a14 14 90 0 1 -14 14 H2678 a14 14 90 0 1 -14 -14 V256 H150" fill="#FFFFFF" stroke="#FFFFFF" stroke-width="0"/>
		<rect x="2664" y="230" width="150" height="52" fill="none" rx="14" stroke="#000000" stroke-width="1.5"/>
		<line x1="2664" y1="256" x2="2814" y2="256" stroke="#000000" stroke-width="1"/>
		<text x="2671" y="248.6" fill="#000000" font-family="Trebuchet MS" font-size="14">TESTCASE_ANOMALIE</text>
	</g>
	<text x="1683" y="107.72" fill="#000000" font-family="Verdana" font-size="12">1,1</text>
	<text x="1881" y="112.54" fill="#000000" font-family="Verdana" font-size="12">0,N</text>
</g>

<!-- Association NOTIFICATION_ANOMALIE -->
<g>
	<line x1="1798" y1="107" x2="2935" y2="256" stroke="#000000" stroke-width="1"/>
	<line x1="2189" y1="107" x2="2935" y2="256" stroke="#000000" stroke-width="1"/>
	<g>
		<path d="M3010 230 a14 14 90 0 1 14 14 V256 h-178 V244 a14 14 90 0 1 14 -14" fill="#FFFFFF" stroke="#FFFFFF" stroke-width="0"/>
		<path d="M3024 256 v12 a14 14 90 0 1 -14 14 H2860 a14 14 90 0 1 -14 -14 V256 H178" fill="#FFFFFF" stroke="#FFFFFF" stroke-width="0"/>
		<rect x="2846" y="230" width="178" height="52" fill="none" rx="14" stroke="#000000" stroke-width="1.5"/>
		<line x1="2846" y1="256" x2="3024" y2="256" stroke="#000000" stroke-width="1"/>
		<text x="2853" y="248.6" fill="#000000" font-family="Trebuchet MS" font-size="14">NOTIFICATION_ANOMALIE</text>
	</g>
	<text x="1881" y="110.2" fill="#000000" font-family="Verdana" font-size="12">0,1</text>
	<text x="2255" y="112.71" fill="#000000" font-family="Verdana" font-size="12">0,N</text>
</g>

<!-- Association TESTCASE_CAMPAGNE -->
<g>
	<line x1="1226" y1="107" x2="3134" y2="256" stroke="#000000" stroke-width="1"/>
	<line x1="1620" y1="107" x2="3134" y2="256" stroke="#000000" stroke-width="1"/>
	<g>
		<path d="M3198 230 a14 14 90 0 1 14 14 V256 h-156 V244 a14 14 90 0 1 14 -14" fill="#FFFFFF" stroke="#FFFFFF" stroke-width="0"/>
		<path d="M3212 256 v12 a14 14 90 0 1 -14 14 H3070 a14 14 90 0 1 -14 -14 V256 H156" fill="#FFFFFF" stroke="#FFFFFF" stroke-width="0"/>
		<rect x="3056" y="230" width="156" height="52" fill="none" rx="14" stroke="#000000" stroke-width="1.5"/>
		<line x1="3056" y1="256" x2="3212" y2="256" stroke="#000000" stroke-width="1"/>
		<text x="3063" y="248.6" fill="#000000" font-family="Trebuchet MS" font-size="14">TESTCASE_CAMPAGNE</text>
	</g>
	<text x="1298" y="104.8" fill="#000000" font-family="Verdana" font-size="12">0,N</text>
	<text x="1683" y="105.43" fill="#000000" font-family="Verdana" font-size="12">0,1</text>
</g>

<!-- Association ANOMALIE_FEATURE -->
<g>
	<line x1="1433" y1="107" x2="3317" y2="256" stroke="#000000" stroke-width="1"/>
	<line x1="1798" y1="107" x2="3317" y2="256" stroke="#000000" stroke-width="1"/>
	<g>
		<path d="M3376 230 a14 14 90 0 1 14 14 V256 h-146 V244 a14 14 90 0 1 14 -14" fill="#FFFFFF" stroke="#FFFFFF" stroke-width="0"/>
		<path d="M3390 256 v12 a14 14 90 0 1 -14 14 H3258 a14 14 90 0 1 -14 -14 V256 H146" fill="#FFFFFF" stroke="#FFFFFF" stroke-width="0"/>
		<rect x="3244" y="230" width="146" height="52" fill="none" rx="14" stroke="#000000" stroke-width="1.5"/>
		<line x1="3244" y1="256" x2="3390" y2="256" stroke="#000000" stroke-width="1"/>
		<text x="3252" y="248.6" fill="#000000" font-family="Trebuchet MS" font-size="14">ANOMALIE_FEATURE</text>
	</g>
	<text x="1503" y="104.72" fill="#000000" font-family="Verdana" font-size="12">0,N</text>
	<text x="1881" y="107.38" fill="#000000" font-family="Verdana" font-size="12">1,1</text>
</g>

<!-- Entity UTILISATEURS -->
<g>
	<g>
		<rect x="755" y="9" width="154" height="26" fill="#FFFFFF" stroke="none" stroke-width="0" opacity="1"/>
		<rect x="755" y="35" width="154" height="170" fill="#FFFFFF" stroke="none" stroke-width="0" opacity="1"/>
		<rect x="755" y="9" width="154" height="196" fill="none" stroke="#000000" stroke-width="1.5" opacity="1"/>
		<line x1="755" y1="35" x2="909" y2="35" stroke="#000000" stroke-width="1"/>
	</g>
	<text x="787" y="27.6" fill="#000000" font-family="Trebuchet MS" font-size="14">UTILISATEURS</text>
	<text x="760" y="53.6" fill="#000000" font-family="Trebuchet MS" font-size="14">id</text>
	<line x1="760" y1="56" x2="773" y2="56" stroke="#000000" stroke-width="1"/>
	<text x="760" y="71.6" fill="#000000" font-family="Trebuchet MS" font-size="14">email</text>
	<text x="760" y="89.6" fill="#000000" font-family="Trebuchet MS" font-size="14">password_hash</text>
	<text x="760" y="107.6" fill="#000000" font-family="Trebuchet MS" font-size="14">first_name</text>
	<text x="760" y="125.6" fill="#000000" font-family="Trebuchet MS" font-size="14">last_name</text>
	<text x="760" y="143.6" fill="#000000" font-family="Trebuchet MS" font-size="14">role</text>
	<text x="760" y="161.6" fill="#000000" font-family="Trebuchet MS" font-size="14">failed_login_attempts</text>
	<text x="760" y="179.6" fill="#000000" font-family="Trebuchet MS" font-size="14">locked_until</text>
	<text x="760" y="197.6" fill="#000000" font-family="Trebuchet MS" font-size="14">created_at</text>
</g>

<!-- Entity PROJETS -->
<g>
	<g>
		<rect x="979" y="27" width="84" height="26" fill="#FFFFFF" stroke="none" stroke-width="0" opacity="1"/>
		<rect x="979" y="53" width="84" height="134" fill="#FFFFFF" stroke="none" stroke-width="0" opacity="1"/>
		<rect x="979" y="27" width="84" height="160" fill="none" stroke="#000000" stroke-width="1.5" opacity="1"/>
		<line x1="979" y1="53" x2="1063" y2="53" stroke="#000000" stroke-width="1"/>
	</g>
	<text x="993" y="45.6" fill="#000000" font-family="Trebuchet MS" font-size="14">PROJETS</text>
	<text x="984" y="71.6" fill="#000000" font-family="Trebuchet MS" font-size="14">id</text>
	<line x1="984" y1="74" x2="997" y2="74" stroke="#000000" stroke-width="1"/>
	<text x="984" y="89.6" fill="#000000" font-family="Trebuchet MS" font-size="14">name</text>
	<text x="984" y="107.6" fill="#000000" font-family="Trebuchet MS" font-size="14">description</text>
	<text x="984" y="125.6" fill="#000000" font-family="Trebuchet MS" font-size="14">start_date</text>
	<text x="984" y="143.6" fill="#000000" font-family="Trebuchet MS" font-size="14">end_date</text>
	<text x="984" y="161.6" fill="#000000" font-family="Trebuchet MS" font-size="14">is_archived</text>
	<text x="984" y="179.6" fill="#000000" font-family="Trebuchet MS" font-size="14">created_at</text>
</g>

<!-- Entity CAMPAGNES -->
<g>
	<g>
		<rect x="1159" y="18" width="134" height="26" fill="#FFFFFF" stroke="none" stroke-width="0" opacity="1"/>
		<rect x="1159" y="44" width="134" height="152" fill="#FFFFFF" stroke="none" stroke-width="0" opacity="1"/>
		<rect x="1159" y="18" width="134" height="178" fill="none" stroke="#000000" stroke-width="1.5" opacity="1"/>
		<line x1="1159" y1="44" x2="1293" y2="44" stroke="#000000" stroke-width="1"/>
	</g>
	<text x="1187" y="36.6" fill="#000000" font-family="Trebuchet MS" font-size="14">CAMPAGNES</text>
	<text x="1164" y="62.6" fill="#000000" font-family="Trebuchet MS" font-size="14">id</text>
	<line x1="1164" y1="65" x2="1177" y2="65" stroke="#000000" stroke-width="1"/>
	<text x="1164" y="80.6" fill="#000000" font-family="Trebuchet MS" font-size="14">name</text>
	<text x="1164" y="98.6" fill="#000000" font-family="Trebuchet MS" font-size="14">objective</text>
	<text x="1164" y="116.6" fill="#000000" font-family="Trebuchet MS" font-size="14">organization_mode</text>
	<text x="1164" y="134.6" fill="#000000" font-family="Trebuchet MS" font-size="14">start_date</text>
	<text x="1164" y="152.6" fill="#000000" font-family="Trebuchet MS" font-size="14">end_date</text>
	<text x="1164" y="170.6" fill="#000000" font-family="Trebuchet MS" font-size="14">status</text>
	<text x="1164" y="188.6" fill="#000000" font-family="Trebuchet MS" font-size="14">created_at</text>
</g>

<!-- Entity FONCTIONNALITES -->
<g>
	<g>
		<rect x="1368" y="27" width="130" height="26" fill="#FFFFFF" stroke="none" stroke-width="0" opacity="1"/>
		<rect x="1368" y="53" width="130" height="134" fill="#FFFFFF" stroke="none" stroke-width="0" opacity="1"/>
		<rect x="1368" y="27" width="130" height="160" fill="none" stroke="#000000" stroke-width="1.5" opacity="1"/>
		<line x1="1368" y1="53" x2="1498" y2="53" stroke="#000000" stroke-width="1"/>
	</g>
	<text x="1374" y="45.6" fill="#000000" font-family="Trebuchet MS" font-size="14">FONCTIONNALITES</text>
	<text x="1373" y="71.6" fill="#000000" font-family="Trebuchet MS" font-size="14">id</text>
	<line x1="1373" y1="74" x2="1386" y2="74" stroke="#000000" stroke-width="1"/>
	<text x="1373" y="89.6" fill="#000000" font-family="Trebuchet MS" font-size="14">name</text>
	<text x="1373" y="107.6" fill="#000000" font-family="Trebuchet MS" font-size="14">description</text>
	<text x="1373" y="125.6" fill="#000000" font-family="Trebuchet MS" font-size="14">priority</text>
	<text x="1373" y="143.6" fill="#000000" font-family="Trebuchet MS" font-size="14">status</text>
	<text x="1373" y="161.6" fill="#000000" font-family="Trebuchet MS" font-size="14">created_at</text>
	<text x="1373" y="179.6" fill="#000000" font-family="Trebuchet MS" font-size="14">updated_at</text>
</g>

<!-- Entity TEST_CASES -->
<g>
	<g>
		<rect x="1562" y="36" width="116" height="26" fill="#FFFFFF" stroke="none" stroke-width="0" opacity="1"/>
		<rect x="1562" y="62" width="116" height="116" fill="#FFFFFF" stroke="none" stroke-width="0" opacity="1"/>
		<rect x="1562" y="36" width="116" height="142" fill="none" stroke="#000000" stroke-width="1.5" opacity="1"/>
		<line x1="1562" y1="62" x2="1678" y2="62" stroke="#000000" stroke-width="1"/>
	</g>
	<text x="1581" y="54.6" fill="#000000" font-family="Trebuchet MS" font-size="14">TEST_CASES</text>
	<text x="1567" y="80.6" fill="#000000" font-family="Trebuchet MS" font-size="14">id</text>
	<line x1="1567" y1="83" x2="1580" y2="83" stroke="#000000" stroke-width="1"/>
	<text x="1567" y="98.6" fill="#000000" font-family="Trebuchet MS" font-size="14">title</text>
	<text x="1567" y="116.6" fill="#000000" font-family="Trebuchet MS" font-size="14">description</text>
	<text x="1567" y="134.6" fill="#000000" font-family="Trebuchet MS" font-size="14">expected_result</text>
	<text x="1567" y="152.6" fill="#000000" font-family="Trebuchet MS" font-size="14">created_at</text>
	<text x="1567" y="170.6" fill="#000000" font-family="Trebuchet MS" font-size="14">updated_at</text>
</g>

<!-- Entity ANOMALIES -->
<g>
	<g>
		<rect x="1720" y="36" width="156" height="26" fill="#FFFFFF" stroke="none" stroke-width="0" opacity="1"/>
		<rect x="1720" y="62" width="156" height="116" fill="#FFFFFF" stroke="none" stroke-width="0" opacity="1"/>
		<rect x="1720" y="36" width="156" height="142" fill="none" stroke="#000000" stroke-width="1.5" opacity="1"/>
		<line x1="1720" y1="62" x2="1876" y2="62" stroke="#000000" stroke-width="1"/>
	</g>
	<text x="1762" y="54.6" fill="#000000" font-family="Trebuchet MS" font-size="14">ANOMALIES</text>
	<text x="1725" y="80.6" fill="#000000" font-family="Trebuchet MS" font-size="14">id</text>
	<line x1="1725" y1="83" x2="1738" y2="83" stroke="#000000" stroke-width="1"/>
	<text x="1725" y="98.6" fill="#000000" font-family="Trebuchet MS" font-size="14">description</text>
	<text x="1725" y="116.6" fill="#000000" font-family="Trebuchet MS" font-size="14">status</text>
	<text x="1725" y="134.6" fill="#000000" font-family="Trebuchet MS" font-size="14">resolution_description</text>
	<text x="1725" y="152.6" fill="#000000" font-family="Trebuchet MS" font-size="14">created_at</text>
	<text x="1725" y="170.6" fill="#000000" font-family="Trebuchet MS" font-size="14">updated_at</text>
</g>

<!-- Entity ASSIGNMENTS -->
<g>
	<g>
		<rect x="1935" y="63" width="98" height="26" fill="#FFFFFF" stroke="none" stroke-width="0" opacity="1"/>
		<rect x="1935" y="89" width="98" height="62" fill="#FFFFFF" stroke="none" stroke-width="0" opacity="1"/>
		<rect x="1935" y="63" width="98" height="88" fill="none" stroke="#000000" stroke-width="1.5" opacity="1"/>
		<line x1="1935" y1="89" x2="2033" y2="89" stroke="#000000" stroke-width="1"/>
	</g>
	<text x="1940" y="81.6" fill="#000000" font-family="Trebuchet MS" font-size="14">ASSIGNMENTS</text>
	<text x="1940" y="107.6" fill="#000000" font-family="Trebuchet MS" font-size="14">id</text>
	<line x1="1940" y1="110" x2="1953" y2="110" stroke="#000000" stroke-width="1"/>
	<text x="1940" y="125.6" fill="#000000" font-family="Trebuchet MS" font-size="14">assigned_at</text>
	<text x="1940" y="143.6" fill="#000000" font-family="Trebuchet MS" font-size="14">status</text>
</g>

<!-- Entity NOTIFICATIONS -->
<g>
	<g>
		<rect x="2128" y="54" width="122" height="26" fill="#FFFFFF" stroke="none" stroke-width="0" opacity="1"/>
		<rect x="2128" y="80" width="122" height="80" fill="#FFFFFF" stroke="none" stroke-width="0" opacity="1"/>
		<rect x="2128" y="54" width="122" height="106" fill="none" stroke="#000000" stroke-width="1.5" opacity="1"/>
		<line x1="2128" y1="80" x2="2250" y2="80" stroke="#000000" stroke-width="1"/>
	</g>
	<text x="2140" y="72.6" fill="#000000" font-family="Trebuchet MS" font-size="14">NOTIFICATIONS</text>
	<text x="2133" y="98.6" fill="#000000" font-family="Trebuchet MS" font-size="14">id</text>
	<line x1="2133" y1="101" x2="2146" y2="101" stroke="#000000" stroke-width="1"/>
	<text x="2133" y="116.6" fill="#000000" font-family="Trebuchet MS" font-size="14">notification_type</text>
	<text x="2133" y="134.6" fill="#000000" font-family="Trebuchet MS" font-size="14">is_read</text>
	<text x="2133" y="152.6" fill="#000000" font-family="Trebuchet MS" font-size="14">created_at</text>
</g>

<!-- Entity MEMBRES_CAMPAGNE -->
<g>
	<g>
		<rect x="2313" y="72" width="148" height="26" fill="#FFFFFF" stroke="none" stroke-width="0" opacity="1"/>
		<rect x="2313" y="98" width="148" height="44" fill="#FFFFFF" stroke="none" stroke-width="0" opacity="1"/>
		<rect x="2313" y="72" width="148" height="70" fill="none" stroke="#000000" stroke-width="1.5" opacity="1"/>
		<line x1="2313" y1="98" x2="2461" y2="98" stroke="#000000" stroke-width="1"/>
	</g>
	<text x="2318" y="90.6" fill="#000000" font-family="Trebuchet MS" font-size="14">MEMBRES_CAMPAGNE</text>
	<text x="2318" y="116.6" fill="#000000" font-family="Trebuchet MS" font-size="14">id</text>
	<line x1="2318" y1="119" x2="2331" y2="119" stroke="#000000" stroke-width="1"/>
	<text x="2318" y="134.6" fill="#000000" font-family="Trebuchet MS" font-size="14">team_type</text>
</g>

<!-- Entity HISTORIQUE_ACTIONS -->
<g>
	<g>
		<rect x="2493" y="36" width="152" height="26" fill="#FFFFFF" stroke="none" stroke-width="0" opacity="1"/>
		<rect x="2493" y="62" width="152" height="116" fill="#FFFFFF" stroke="none" stroke-width="0" opacity="1"/>
		<rect x="2493" y="36" width="152" height="142" fill="none" stroke="#000000" stroke-width="1.5" opacity="1"/>
		<line x1="2493" y1="62" x2="2645" y2="62" stroke="#000000" stroke-width="1"/>
	</g>
	<text x="2499" y="54.6" fill="#000000" font-family="Trebuchet MS" font-size="14">HISTORIQUE_ACTIONS</text>
	<text x="2498" y="80.6" fill="#000000" font-family="Trebuchet MS" font-size="14">id</text>
	<line x1="2498" y1="83" x2="2511" y2="83" stroke="#000000" stroke-width="1"/>
	<text x="2498" y="98.6" fill="#000000" font-family="Trebuchet MS" font-size="14">entity_type</text>
	<text x="2498" y="116.6" fill="#000000" font-family="Trebuchet MS" font-size="14">entity_id</text>
	<text x="2498" y="134.6" fill="#000000" font-family="Trebuchet MS" font-size="14">action_type</text>
	<text x="2498" y="152.6" fill="#000000" font-family="Trebuchet MS" font-size="14">description</text>
	<text x="2498" y="170.6" fill="#000000" font-family="Trebuchet MS" font-size="14">created_at</text>
</g>
</svg>